<mxfile host="app.diagrams.net" modified="2023-10-16T07:50:41.271Z" agent="Mozilla/5.0 (Macintosh; Intel Mac OS X 10_15_7) AppleWebKit/537.36 (KHTML, like Gecko) Chrome/116.0.0.0 Safari/537.36" etag="hM-CKMr4TpJFX49CETZr" version="22.0.4" type="github">
  <diagram name="第 1 页" id="lTeLcaSRZDCElp11zsGs">
    <mxGraphModel dx="1050" dy="597" grid="1" gridSize="10" guides="1" tooltips="1" connect="1" arrows="1" fold="1" page="1" pageScale="1" pageWidth="827" pageHeight="1169" math="0" shadow="0">
      <root>
        <mxCell id="0" />
        <mxCell id="1" parent="0" />
        <mxCell id="2t6nK0DKOix5EoJwQmrf-1" value="步骤一：对用户提出问题进行意图识别" style="rounded=1;whiteSpace=wrap;html=1;" vertex="1" parent="1">
          <mxGeometry x="370" y="90" width="120" height="60" as="geometry" />
        </mxCell>
        <mxCell id="2t6nK0DKOix5EoJwQmrf-2" value="步骤二：对农业问题进行知识库检索，使用向量数据库" style="rounded=1;whiteSpace=wrap;html=1;" vertex="1" parent="1">
          <mxGeometry x="370" y="170" width="120" height="60" as="geometry" />
        </mxCell>
      </root>
    </mxGraphModel>
  </diagram>
</mxfile>
